Coordinates
version=1
nRows=9
nColumns=63
inDegrees=yes

Units are S.I. units (second, meters, Newtons, ...)
If the header above contains a line with 'inDegrees', this indicates whether rotational values are in degrees (yes) or radians (no).

endheader
time	pelvis_tilt	pelvis_list	pelvis_rotation	pelvis_tx	pelvis_ty	pelvis_tz	hip_flexion_r	hip_adduction_r	hip_rotation_r	knee_angle_r	knee_angle_r_beta	ankle_angle_r	subtalar_angle_r	mtp_angle_r	hip_flexion_l	hip_adduction_l	hip_rotation_l	knee_angle_l	knee_angle_l_beta	ankle_angle_l	subtalar_angle_l	mtp_angle_l	L5_S1_Flex_Ext	L5_S1_Lat_Bending	L5_S1_axial_rotation	L4_L5_Flex_Ext	L4_L5_Lat_Bending	L4_L5_axial_rotation	L3_L4_Flex_Ext	L3_L4_Lat_Bending	L3_L4_axial_rotation	L2_L3_Flex_Ext	L2_L3_Lat_Bending	L2_L3_axial_rotation	L1_L2_Flex_Ext	L1_L2_Lat_Bending	L1_L2_axial_rotation	L1_T12_Flex_Ext	L1_T12_Lat_Bending	L1_T12_axial_rotation	Abs_r3	Abs_r2	Abs_r1	Abs_t1	Abs_t2	neck_flexion	neck_bending	neck_rotation	arm_flex_r	arm_add_r	arm_rot_r	elbow_flex_r	pro_sup_r	wrist_flex_r	wrist_dev_r	arm_flex_l	arm_add_l	arm_rot_l	elbow_flex_l	pro_sup_l	wrist_flex_l	wrist_dev_l
     11.24200000	    -40.05129422	      0.80106865	      2.06038202	     -0.15433325	      1.00826724	      0.03908853	     97.74106702	     -4.61988250	      1.51328341	     68.43834654	      1.19447448	      3.43189274	    -14.70701768	      0.00000000	     94.26860923	     -5.88835902	      0.28774337	    101.20499401	      1.76636036	      1.61842501	    -17.11894007	      0.00000000	     -0.05592739	     -0.02714563	     -0.27772224	     -0.10386275	     -0.03610369	     -0.29507988	     -0.09188311	     -0.06600190	     -0.29507988	     -0.06391941	     -0.06600190	     -0.24300696	     -0.05193417	     -0.05535538	     -0.22564932	     -0.03195691	     -0.04204859	     -0.20829168	     -0.39948375	     -0.30707685	     -1.54460779	      0.00000000	      0.00000000	     -0.00000000	      0.00000000	      0.00000000	     71.71662495	    -11.50258099	     34.68918856	     33.64111304	     50.10833327	      0.00000000	      5.00000014	     66.60621364	    -10.79948863	     22.49784629	     36.80989108	     53.75572858	      0.00000000	      5.00000014
     11.25000000	    -40.06710242	      1.14888997	      2.02123605	     -0.15422617	      1.00831159	      0.03977518	     96.64139391	     -4.60906458	      1.58754917	     66.80459892	      1.16596021	      2.79878647	    -14.50129078	      0.00000000	     95.19030685	     -5.93897271	      0.31833268	    102.68598133	      1.79220847	      1.74957074	    -17.04587793	      0.00000000	     -0.05491317	     -0.08521268	     -0.28717902	     -0.10197924	     -0.11333287	     -0.30512771	     -0.09021684	     -0.20718612	     -0.30512771	     -0.06276026	     -0.20718612	     -0.25128165	     -0.05099237	     -0.17376570	     -0.23333296	     -0.03137738	     -0.13199445	     -0.21538427	     -0.39223925	     -0.96394292	     -1.59720357	      0.00000000	      0.00000000	     -0.00000000	      0.00000000	      0.00000000	     71.64792030	    -11.41028660	     34.72279381	     33.70646675	     50.15323431	      0.00000000	      5.00000014	     66.70372778	    -11.02720964	     22.77582573	     36.94432197	     53.84732173	      0.00000000	      5.00000014
     11.25800000	    -40.04243919	      1.43935165	      1.64294027	     -0.15409311	      1.00814293	      0.04098845	     95.58243825	     -4.27446972	      1.33933137	     65.23551153	      1.13857447	      1.28921370	    -15.58540759	      0.00000000	     96.21359891	     -6.38561416	      0.39591904	    104.27862003	      1.82000526	      1.63371301	    -17.40838108	      0.00000000	     -0.05417025	     -0.13697204	     -0.22725144	     -0.10059956	     -0.18217281	     -0.24145465	     -0.08899630	     -0.33303382	     -0.24145465	     -0.06191117	     -0.33303382	     -0.19884501	     -0.05030249	     -0.27931339	     -0.18464179	     -0.03095288	     -0.21216969	     -0.17043858	     -0.38693265	     -1.54945512	     -1.26390431	      0.00000000	      0.00000000	     -0.00000000	      0.00000000	      0.00000000	     71.70040271	    -11.41943059	     35.16531991	     33.60087486	     50.96590128	      0.00000000	      5.00000014	     67.06384698	    -11.44614582	     24.27698697	     36.91109424	     55.12998205	      0.00000000	      5.00000014
     11.26700000	    -40.03735234	      1.83829294	      1.60051888	     -0.15384317	      1.00820114	      0.04166916	     94.48768070	     -4.36455373	      1.25662784	     63.66006475	      1.11107773	      0.81109037	    -15.24636458	      0.00000000	     97.16566729	     -6.46219066	      0.33543147	    105.63419144	      1.84366444	      1.88835871	    -17.34183067	      0.00000000	     -0.05317382	     -0.20191142	     -0.23779548	     -0.09874910	     -0.26854218	     -0.25265769	     -0.08735926	     -0.49092742	     -0.25265769	     -0.06077236	     -0.49092742	     -0.20807104	     -0.04937721	     -0.41173776	     -0.19320882	     -0.03038352	     -0.31276079	     -0.17834661	     -0.37981526	     -2.28406233	     -1.32254709	      0.00000000	      0.00000000	     -0.00000000	      0.00000000	      0.00000000	     71.62347908	    -11.28588536	     35.21242244	     33.58631630	     50.99695586	      0.00000000	      5.00000014	     67.14068599	    -11.60724546	     24.32254268	     36.94819499	     55.16666007	      0.00000000	      5.00000014
     11.27500000	    -40.00753706	      2.19134243	      1.31952586	     -0.15346929	      1.00827236	      0.04254082	     93.32951813	     -4.21880779	      1.04399978	     62.01566696	      1.08237758	      0.15780588	    -15.30871841	      0.00000000	     98.15555995	     -6.78320408	      0.25987557	    107.01502521	      1.86776454	      1.89819036	    -17.55638527	      0.00000000	     -0.05330442	     -0.25727915	     -0.19755796	     -0.09899163	     -0.34218127	     -0.20990533	     -0.08757383	     -0.62554853	     -0.20990533	     -0.06092162	     -0.62554853	     -0.17286322	     -0.04949848	     -0.52464365	     -0.16051584	     -0.03045814	     -0.39852541	     -0.14816847	     -0.38074812	     -2.91039324	     -1.09875811	      0.00000000	      0.00000000	     -0.00000000	      0.00000000	      0.00000000	     71.55273561	    -11.18042899	     35.28621590	     33.50991146	     51.05525539	      0.00000000	      5.00000014	     67.18283584	    -11.76239332	     24.52138070	     37.00619190	     55.26256491	      0.00000000	      5.00000014
     11.28300000	    -39.96964892	      2.35270533	      0.79105468	     -0.15306613	      1.00826972	      0.04376483	     92.19623194	     -3.72671751	      0.76611904	     60.43561796	      1.05480052	     -1.20802044	    -16.09368296	      0.00000000	     99.26673267	     -7.38279326	      0.43866894	    108.42594177	      1.89238968	      1.65816377	    -17.80445446	      0.00000000	     -0.05212326	     -0.29054448	     -0.10454893	     -0.09679810	     -0.38642416	     -0.11108323	     -0.08563330	     -0.70642985	     -0.11108323	     -0.05957167	     -0.70642985	     -0.09148031	     -0.04840166	     -0.59247830	     -0.08494600	     -0.02978323	     -0.45005340	     -0.07841170	     -0.37231122	     -3.28669726	     -0.58146977	      0.00000000	      0.00000000	     -0.00000000	      0.00000000	      0.00000000	     71.49551921	    -11.20511051	     35.48701749	     33.48775981	     51.27649143	      0.00000000	      5.00000014	     67.33454256	    -11.98106547	     25.37431304	     37.02970287	     55.65419390	      0.00000000	      5.00000014
     11.29200000	    -39.95968218	      2.75494003	      0.84573578	     -0.15267067	      1.00847848	      0.04423292	     91.09969864	     -3.92036522	      0.68125574	     58.94774930	      1.02883231	     -1.73021274	    -16.01481505	      0.00000000	    100.23130586	     -7.36140524	      0.23031117	    109.49985123	      1.91113293	      1.74932106	    -17.84798800	      0.00000000	     -0.05174137	     -0.35519729	     -0.12720784	     -0.09608889	     -0.47241240	     -0.13515833	     -0.08500589	     -0.86362670	     -0.13515833	     -0.05913521	     -0.86362670	     -0.11130686	     -0.04804703	     -0.72431832	     -0.10335637	     -0.02956502	     -0.55020060	     -0.09540588	     -0.36958341	     -4.01806280	     -0.70749187	      0.00000000	      0.00000000	     -0.00000000	      0.00000000	      0.00000000	     71.35851071	    -11.08752969	     35.54114901	     33.49700463	     51.31647822	      0.00000000	      5.00000014	     67.36837159	    -12.15749493	     25.49363171	     37.07891939	     55.71958964	      0.00000000	      5.00000014
     11.30000000	    -39.93601961	      2.99104071	      0.51232380	     -0.15221190	      1.00866603	      0.04520315	     89.93181406	     -3.63619688	      0.54795422	     57.37508494	      1.00138414	     -2.57065251	    -16.40059963	      0.00000000	    101.29233869	     -7.77336027	      0.25943940	    110.65740355	      1.93133603	      1.53265844	    -17.93019091	      0.00000000	     -0.05145196	     -0.39812753	     -0.07169670	     -0.09555143	     -0.52950962	     -0.07617774	     -0.08453042	     -0.96800729	     -0.07617774	     -0.05880444	     -0.96800729	     -0.06273461	     -0.04777829	     -0.81186167	     -0.05825357	     -0.02939965	     -0.61669955	     -0.05377252	     -0.36751620	     -4.50369829	     -0.39875552	      0.00000000	      0.00000000	     -0.00000000	      0.00000000	      0.00000000	     71.18947651	    -11.03163221	     35.39749494	     33.52159088	     51.41454359	      0.00000000	      5.00000014	     67.41787050	    -12.41978405	     26.16115335	     37.26599405	     55.99360887	      0.00000000	      5.00000014
     11.30800000	    -39.95032185	      3.34481469	      0.68663976	     -0.15183729	      1.00898448	      0.04548871	     88.85599713	     -3.92033129	      0.57343623	     55.98888160	      0.97719033	     -3.04197608	    -16.10217666	      0.00000000	    102.25913681	     -7.61791792	      0.08835908	    111.55065101	      1.94692614	      1.70390946	    -17.76796752	      0.00000000	     -0.05060379	     -0.45817781	     -0.11136173	     -0.09397630	     -0.60937648	     -0.11832184	     -0.08313697	     -1.11401352	     -0.11832184	     -0.05783507	     -1.11401352	     -0.09744151	     -0.04699068	     -0.93431618	     -0.09048140	     -0.02891501	     -0.70971742	     -0.08352130	     -0.36145782	     -5.18299897	     -0.61936052	      0.00000000	      0.00000000	     -0.00000000	      0.00000000	      0.00000000	     71.01794234	    -10.95458206	     35.35835126	     33.56654185	     51.42142855	      0.00000000	      5.00000014	     67.44414055	    -12.58406048	     26.28802384	     37.32231749	     56.03023145	      0.00000000	      5.00000014
